<svg width="558" height="139" viewBox="0 0 558 139" fill="none" xmlns="http://www.w3.org/2000/svg">
    <path d="M271.32 2.46826V2.4685V2.46826L151.261 122.526H183.662L283.708 22.4792H557.419V2.46826H271.32Z" fill="#FEFEFE"/>
    <path d="M97.1299 1.02816C63.081 1.02816 35.4787 28.6307 35.4787 62.6806C35.4787 96.7291 63.081 124.331 97.1299 124.331C131.18 124.331 158.781 96.7291 158.781 62.6806C158.781 28.6307 131.18 1.02816 97.1299 1.02816ZM97.1299 99.2146C76.9531 99.2146 60.5967 82.8586 60.5967 62.6806C60.5967 42.5038 76.9531 26.1464 97.1299 26.1464C117.307 26.1464 133.665 42.504 133.665 62.6806C133.665 82.8586 117.307 99.2146 97.1299 99.2146ZM0.578278 122.526H27.1954V0.846175L0.578278 27.4628V122.526ZM487.671 41.4057V89.4288C487.671 102.61 479.318 101.273 475.676 101.273V122.526H482.081C498.511 122.526 512.17 113.847 512.17 92.0246V62.6595H532.923V122.526H557.422V41.4057H487.671ZM394.774 41.4057V41.4062H394.773L394.774 41.4083V122.524L394.773 122.526H466.589V101.273H419.273V91.4692H454.663V72.4633H419.273V62.6593H466.589V41.406H394.777L394.774 41.4055L394.774 41.4057ZM227.541 0.845703C193.491 0.845703 165.89 28.448 165.89 62.4981C165.89 96.5466 193.491 124.149 227.541 124.149C261.589 124.149 289.192 96.5466 289.192 62.4981C289.192 28.448 261.589 0.845703 227.541 0.845703ZM227.541 99.0319C207.363 99.0319 191.007 82.6759 191.007 62.4979C191.007 42.3211 207.363 25.9637 227.541 25.9637C247.717 25.9637 264.075 42.3213 264.075 62.4979C264.075 82.6759 247.717 99.0319 227.541 99.0319ZM374.016 41.4055H305.74V81.8041C305.74 96.0804 301.36 101.272 294.383 101.272H290.226V138.202H311.966V122.526H363.532V138.202H385.272V101.272H374.016V41.4055ZM349.518 101.272H326.507C328.941 96.8919 330.238 92.349 330.238 82.7772V62.6591H349.518V101.272V101.272Z" fill="#FEFEFE"/>
</svg>