<svg width="612" height="111" viewBox="0 0 612 111" fill="none" xmlns="http://www.w3.org/2000/svg">
    <path fill-rule="evenodd" clip-rule="evenodd" d="M171.989 29.9595H125.565L129.763 13.9601H85.9545L91.0241 1.36303H3.05176e-05V27.4252H55.6126L24.48 109.182H51.4131L76.6837 39.23H96.8872L69.9526 110.846H96.8872L118.83 52.6982H139.035L116.296 109.971H159.234L171.038 89.7715C168.265 97.6146 171.038 104.348 179.434 109.971C187.591 109.971 195.753 109.971 203.914 109.971C207.398 106.251 210.885 102.527 214.451 98.8052C215.084 98.0122 215.796 97.2989 216.511 96.5059C215.402 105.538 219.917 109.971 229.974 109.971C237.582 109.971 245.187 109.971 252.792 109.971C256.041 104.904 259.368 99.8341 262.695 94.7638L256.99 109.971L284.796 110.846L301.514 67.0375L312.444 109.971H341.994C346.192 104.666 350.39 99.3592 354.591 93.9708C353.718 104.666 359.66 109.737 372.26 109.182H395.865H396.737L410.758 94.4474C410.758 100.785 414.799 105.933 422.799 109.971C432.623 109.971 442.447 109.971 452.35 109.971L463.916 96.349C464.231 101.497 467.4 106.013 473.342 109.971C481.503 109.971 489.663 109.971 497.822 109.971C501.306 106.251 504.792 102.527 508.357 98.8052C508.988 98.0122 509.705 97.2989 510.419 96.5059C509.309 105.538 513.823 109.971 523.885 109.971C531.49 109.971 581.16 109.971 588.767 109.971V88.1105C581.16 88.1105 545.829 88.1105 538.224 88.1105C545.275 68.7016 552.246 49.371 559.297 29.9595C541.781 29.9595 524.864 29.9595 508.357 29.9595C507.644 29.9595 506.933 29.9595 506.221 29.9595C492.752 30.5149 487.126 37.0129 482.611 44.2987C477.065 58.6389 471.521 72.8975 465.895 87.2394H438.011L451.478 49.3707H470.014L475.879 30.8305H459.084L469.806 0.491936H444.744L433.812 30.8305H415.273L407.668 49.3707H427.077L412.74 86.3657C412.342 87.2392 412.025 88.1102 411.71 88.8992C406.479 88.8992 401.172 88.8992 395.866 88.8992C390.797 88.8992 385.805 88.8992 380.734 88.8992L395.866 50.9525L404.264 29.9592H395.866H376.96C369.989 49.6064 362.433 69.2553 355.463 88.8992H333.52L327.659 65.3717L362.987 30.8305C362.502 30.8305 341.237 30.8305 333.52 30.8305L304.048 56.8965L325.123 0.491936H298.185L265.231 88.1105C258.259 88.1105 251.287 88.1105 244.317 88.1105C251.368 68.7016 258.341 49.371 265.39 29.9595C248.355 29.9595 231.405 29.9595 214.452 29.9595C213.737 29.9595 213.023 29.9595 212.311 29.9595C198.844 30.5149 193.22 37.0129 188.703 44.2987C182.842 59.4293 176.898 74.6406 171.039 89.7713H149.965L171.991 29.9595H171.989ZM599.608 17.2736C599.017 17.5103 598.129 17.6302 596.94 17.6302H594.407V11.8497H596.8C598.354 11.8497 599.489 12.0487 600.196 12.4446C600.9 12.8424 601.252 13.6222 601.252 14.7803C601.252 16.0071 600.705 16.8382 599.608 17.2736ZM603.925 25.6838C603.859 25.5522 603.812 25.2753 603.786 24.8522C603.761 24.4321 603.745 24.0362 603.745 23.663V22.4985C603.745 21.6939 603.458 20.8664 602.875 20.0249C602.292 19.1793 601.376 18.6592 600.127 18.4602C601.114 18.3033 601.884 18.047 602.44 17.6887C603.481 17.0157 604.005 15.9662 604.005 14.5404C604.003 12.5369 603.181 11.1942 601.527 10.5039C600.604 10.1234 599.153 9.931 597.177 9.931H591.596V25.8811H594.407L594.409 19.5887H596.62C598.111 19.5887 599.153 19.7605 599.747 20.1022C600.751 20.6965 601.252 21.9185 601.252 23.7617V25.0306L601.311 25.5441C601.323 25.6092 601.339 25.67 601.35 25.7226C601.367 25.7767 601.376 25.8293 601.391 25.8811H604.022L603.925 25.684L603.925 25.6838ZM606.298 26.8514C603.873 29.3037 600.922 30.5288 597.451 30.5288C593.984 30.5288 591.037 29.3054 588.606 26.8514C586.194 24.3983 584.986 21.4293 584.985 17.9447C584.985 14.4893 586.201 11.5407 588.627 9.09824C591.067 6.6485 594.009 5.42149 597.451 5.42149C600.911 5.42149 603.858 6.64826 606.298 9.09824C608.725 11.5407 609.939 14.489 609.939 17.9447C609.939 21.4308 608.725 24.3983 606.298 26.8514ZM607.744 7.69565C604.908 4.8694 601.476 3.46018 597.451 3.46018C593.456 3.46018 590.043 4.86798 587.223 7.69565C584.386 10.5325 582.967 13.9492 582.967 17.9447C582.967 21.9814 584.372 25.423 587.182 28.2532C590.006 31.1048 593.428 32.5299 597.451 32.5299C601.476 32.5299 604.908 31.1048 607.744 28.2549C610.579 25.4043 612 21.9682 612 17.9433C612 13.9355 610.579 10.5193 607.744 7.69565ZM406.206 24.2487L414.602 0.491699H387.304L378.742 24.2487H406.206H406.206ZM525.626 51.0348L511.288 88.8992H508.357H491.008L505.347 51.0348H508.357C514.303 51.0348 519.931 51.0348 525.626 51.0348ZM217.381 88.8992H214.451H197.102L211.438 51.0348H214.451H231.719L217.381 88.8992H217.381Z" fill="#FEFEFE"/>
</svg>
