<svg width="287" height="346" viewBox="0 0 287 346" fill="none" xmlns="http://www.w3.org/2000/svg">
    <path d="M66.4316 344.001C65.8806 344.039 65.4647 344.516 65.5025 345.067C65.5404 345.618 66.0177 346.034 66.5687 345.997L66.4316 344.001ZM48.0001 103.5L48.1734 102.515L48.0001 103.5ZM30.0003 163.999L29.9401 164.997L30.0003 163.999ZM285.736 21.9715C286.273 21.8408 286.602 21.2999 286.471 20.7633L284.342 12.0188C284.212 11.4822 283.671 11.1531 283.134 11.2837C282.598 11.4144 282.268 11.9553 282.399 12.4919L284.292 20.2648L276.519 22.1574C275.982 22.288 275.653 22.8289 275.784 23.3656C275.914 23.9022 276.455 24.2313 276.992 24.1006L285.736 21.9715ZM66.5687 345.997C133.222 341.417 167.89 287.337 166.252 231.114C164.613 174.862 126.67 116.33 48.1734 102.515L47.8267 104.485C125.329 118.125 162.64 175.807 164.253 231.173C165.866 286.568 131.784 339.511 66.4316 344.001L66.5687 345.997ZM48.1734 102.515C32.3851 99.7362 20.8681 101.999 13.1032 107.168C5.32637 112.345 1.45657 120.343 0.797695 128.715C-0.510852 145.341 10.8814 163.846 29.9401 164.997L30.0606 163.001C12.4044 161.935 1.54652 144.691 2.79153 128.872C3.40944 121.021 7.01735 113.622 14.2115 108.833C21.4177 104.036 32.365 101.763 47.8267 104.485L48.1734 102.515ZM29.9401 164.997C37.5445 165.456 44.9815 162.023 52.3921 156.071C59.8066 150.115 67.3098 141.545 75.0724 131.51C82.838 121.47 90.9099 109.901 99.4394 97.9326C107.977 85.9538 116.983 73.56 126.647 61.823C145.989 38.3312 167.881 17.5792 193.751 8.07135C219.55 -1.41046 249.452 0.239169 284.98 21.8542L286.02 20.1456C250.048 -1.73936 219.512 -3.52719 193.061 6.19412C166.681 15.8894 144.51 36.981 125.103 60.5517C115.392 72.3459 106.352 84.7878 97.8107 96.7719C89.2622 108.767 81.2247 120.287 73.4904 130.286C65.753 140.289 58.3656 148.707 51.1396 154.512C43.9096 160.319 36.956 163.417 30.0606 163.001L29.9401 164.997Z" fill="white"/>
</svg>
