<svg width="450" height="159" viewBox="0 0 450 159" fill="none" xmlns="http://www.w3.org/2000/svg">
    <path d="M38.893 21.0699C43.3107 8.45012 55.2217 0 68.5924 0H424.715C441.547 0 453.355 16.598 447.836 32.4996L427.457 91.2101H195.081L198.284 81.7121H198.378C199.022 82.9396 199.849 83.8997 200.866 84.5919C206.874 87.7861 214.043 83.4936 215.375 78.4883L225.842 48.0853C228.218 40.9697 221.88 39.213 215.666 42.1408C214.075 42.8905 212.319 43.8633 210.84 45.2446H210.653L211.895 41.6367H200.523L177.595 106.634H189.878H422.103L411.443 137.344C407.049 150.004 395.118 158.492 381.717 158.492H25.2854C8.42563 158.492 -3.38461 141.844 2.18578 125.932L8.94412 106.625H53.769L59.1822 91.2089H14.3406L38.8934 21.0697L38.893 21.0699ZM211.601 49.3121C212.799 49.3121 213.364 50.1957 212.983 51.308L204.709 75.3376C204.266 76.8917 203.157 77.6515 202.045 77.7483C200.929 77.8453 199.811 77.2805 200.48 75.3376L208.754 51.308C209.168 50.1008 210.333 49.3121 211.601 49.3121ZM153.799 47.8328L156.295 34.7826C151.055 32.7853 144.491 31.9083 137.643 31.9083C130.386 31.9083 123.422 32.9476 115.664 35.2845C101.682 39.4984 86.2622 49.4231 79.2544 63.7969C72.8146 77.0086 73.2979 93.8257 87.33 102.035C93.1396 105.435 101.246 107.155 111.625 107.155C118.324 107.155 125.791 106.456 134.029 105.06L140.109 92.2409C130.946 94.7442 123.557 95.9837 117.913 95.9837C111.324 95.9837 106.059 94.7714 102.13 92.3399C98.1984 89.905 95.6755 86.7165 94.5905 82.7983C92.0612 73.669 97.2077 63.7967 103.282 57.297C106.968 53.3516 111.529 50.1598 116.961 47.737C122.394 45.3133 128.284 44.1104 134.617 44.1104C140.949 44.1104 147.342 45.3502 153.799 47.8326L153.799 47.8328ZM169.78 89.7008H151.2L144.786 106.793H163.366L169.78 89.7008ZM248.649 47.9322C249.673 47.9147 250.477 48.5295 249.97 50.0031L240.93 76.2596C240.378 77.8617 238.814 78.8073 237.718 78.7368C236.809 78.679 236.222 77.9213 236.795 76.2596L245.834 50.0031C246.302 48.6419 247.594 47.9483 248.65 47.9322H248.649ZM238.964 43.745C236.307 45.8176 234.283 48.8769 232.891 52.92L225.754 73.6508C224.399 77.591 224.34 80.585 225.577 82.632C226.814 84.678 230.128 85.7024 235.516 85.7024C241.031 85.7024 245.049 84.6792 247.572 82.632C250.093 80.5859 252.033 77.591 253.389 73.6508L260.526 52.92C261.918 48.8779 262.03 45.8173 260.864 43.745C259.699 41.6751 256.421 40.6369 251.032 40.6369C245.643 40.6369 241.621 41.6751 238.964 43.745H238.964ZM297.892 27.5855C296.444 29.5085 293.786 30.4247 291.46 30.4247C289.544 30.4247 287.279 29.6914 287.135 27.4319L279.423 28.813C279.193 34.8285 283.979 36.6426 289.321 36.6426C295.764 36.6426 301.285 34.0414 304.784 28.5834L297.891 27.5855H297.892ZM274.952 84.9338H286.419L301.325 41.6349H289.577L277.999 75.2605C277.025 78.0924 272.43 79.1637 273.77 75.2605L285.349 41.6349H273.786L261.151 78.3319C260.446 80.3789 260.424 82.0813 261.085 83.4363C262.642 86.6348 268.991 85.5346 271.53 84.359C273.133 83.6169 274.594 82.6059 275.911 81.3269H276.194L274.952 84.9338ZM323.39 41.6349H311.827L296.921 84.9338H308.483L316.333 62.1328H316.52L313.369 84.9338H325.588L328.247 60.2894L340.497 41.6349H328.56L317.075 60.521H316.887L323.39 41.6349ZM349.016 76.0433L351.644 68.5357C352.181 66.9968 353.08 65.9106 354.552 65.1661L357.513 63.6689L353.573 75.1083C353.14 76.3654 351.62 77.8718 350.178 77.8718C349.298 77.8718 348.738 76.8377 349.016 76.0435V76.0433ZM352.524 42.9388C349.426 44.4755 347.278 46.9819 346.079 50.4636L343.938 56.6836H355.781L358.372 49.584C359.416 47.1908 362.844 46.9395 362.355 49.6602C362.05 51.3503 360.992 53.7698 359.91 55.0704C358.403 56.8753 355.695 57.7714 353.415 58.5259C353.102 58.6293 352.797 58.7303 352.504 58.8307C349.119 59.9907 346.355 61.2631 344.247 62.7476C342.139 64.2309 340.59 66.4076 339.603 69.2722L336.484 78.3316C335.832 80.2243 335.854 81.8896 336.553 83.3218C337.249 84.7551 338.943 85.4724 341.638 85.4724C343.518 85.4724 345.276 85.1013 346.91 84.359C348.543 83.6169 350.07 82.5548 351.486 81.1723H351.579C351.181 82.325 350.927 83.5655 350.806 84.7814H362.745C362.687 83.016 363.146 80.8938 363.734 79.1762L373.143 51.8447C374.442 48.0595 375.291 44.1274 370.827 42.0573C368.31 40.8904 365.964 40.6369 363.28 40.6369C359.206 40.6369 355.62 41.4041 352.524 42.9388H352.524ZM189.416 48.8506L191.901 41.6349H161.258L158.708 48.8506H168.545L155.842 84.9338H167.497L180.203 48.8506H189.416Z" fill="#FEFEFE"/>
</svg>
